<?xml version="1.0" encoding="UTF-8"?>
<svg id="LOGO_COOLING_REPAIR-BLANCO" data-name="LOGO COOLING REPAIR-BLANCO" xmlns="http://www.w3.org/2000/svg" viewBox="0 0 841.89 595.28">
  <defs>
    <style>
      .cls-1, .cls-2 {
        fill: #fff;
      }

      .cls-3 {
        fill: none;
        stroke: #fff;
      }

      .cls-3, .cls-2 {
        stroke-miterlimit: 10;
      }

      .cls-2 {
        stroke: #3f5298;
        stroke-width: .25px;
      }
    </style>
  </defs>
  <g>
    <path class="cls-1" d="M163.68,293.72h12.4c.21-2.16,1.41-11.89,9.93-19.42,8.61-7.61,18.55-7.52,20.69-7.46v-12.29c-2.98-.08-17.62-.21-29.74,10.74-12.26,11.08-13.07,25.5-13.27,28.42Z"/>
    <path class="cls-3" d="M181.22,291.45h6.35c.11-1.11.72-6.09,5.09-9.95,4.41-3.89,9.5-3.85,10.59-3.82v-6.29c-1.53-.04-9.02-.11-15.23,5.5-6.28,5.68-6.7,13.06-6.8,14.56Z"/>
    <path class="cls-1" d="M203.13,284.13c-2,3.61-4.01,7.23-6.01,10.84,1.78,1.23,9.72,7,12.17,18.1,2.48,11.21-2.41,19.87-3.51,21.71,3.58,1.99,7.17,3.97,10.75,5.96,1.51-2.57,8.73-15.31,5.03-31.22-3.75-16.1-15.96-23.8-18.42-25.39Z"/>
    <path class="cls-3" d="M196.6,300.57l-3.08,5.55c.91.63,4.98,3.59,6.23,9.27,1.27,5.74-1.23,10.18-1.8,11.12l5.5,3.05c.77-1.32,4.47-7.84,2.57-15.99-1.92-8.24-8.17-12.19-9.44-13Z"/>
    <path class="cls-1" d="M192.23,323.61c-1.94-3.65-3.87-7.3-5.81-10.95-2.01.82-11.17,4.32-21.81.32-10.75-4.04-15.34-12.86-16.28-14.78-3.62,1.92-7.24,3.84-10.86,5.76,1.33,2.67,8.06,15.67,23.42,21.24,15.54,5.64,28.65-.39,31.33-1.59Z"/>
    <path class="cls-3" d="M182.02,309.17l-2.97-5.61c-1.03.42-5.72,2.21-11.17.17-5.51-2.07-7.85-6.59-8.34-7.57-1.85.98-3.71,1.97-5.56,2.95.68,1.37,4.13,8.02,11.99,10.88,7.96,2.89,14.67-.2,16.05-.81Z"/>
  </g>
  <g>
    <path class="cls-1" d="M241.17,296.13c0-14.03,10.27-24.66,25.54-24.66,7.28,0,13.21,2.58,16.15,7.28l-6.87,5.64c-2.11-3.11-5.4-4.81-9.92-4.81-9.28,0-15.27,7.1-15.27,15.97,0,6.22,4.11,10.33,11.51,10.33,4.17,0,7.87-1.47,10.92-4.76l5.64,5.75c-4.35,5.05-10.33,7.1-17.38,7.1-12.56,0-20.32-7.28-20.32-17.85Z"/>
    <path class="cls-1" d="M361.61,269.71h9.16l-8.69,43.57h-9.16l8.69-43.57Z"/>
    <path class="cls-1" d="M379.94,281.69h9.1l-6.28,31.59h-9.1l6.28-31.59ZM380.7,272.53c0-3.05,2.41-5.46,6.05-5.46,3.23,0,5.4,2,5.4,4.58,0,3.35-2.47,5.64-6.11,5.64-3.23,0-5.34-2.11-5.34-4.76Z"/>
    <path class="cls-1" d="M430.49,291.96c0,1.17-.12,2.47-.41,3.82l-3.52,17.5h-9.16l3.41-16.91c.18-.76.23-1.53.23-2.17,0-3.23-1.76-5.05-5.4-5.05-4.64,0-7.87,2.58-8.98,8.1l-3.17,16.03h-9.16l6.28-31.59h8.69l-.7,3.41c2.88-2.64,6.52-3.88,10.39-3.88,6.93,0,11.51,3.76,11.51,10.75Z"/>
    <path class="cls-1" d="M475.14,281.69l-5.23,26.31c-2.41,12.15-9.28,17.14-20.2,17.14-6.17,0-11.33-1.47-15.03-4.17l4.34-6.64c2.47,2.06,6.64,3.41,11.1,3.41,6.34,0,9.22-2.82,10.33-8.16l.23-1.35c-2.47,2.29-5.75,3.52-9.63,3.52-7.81,0-13.97-4.99-13.97-13.27,0-9.69,7.52-17.26,17.61-17.26,4.7,0,8.75,1.64,10.69,5.64l1-5.17h8.75ZM462.69,295.01c0-3.82-2.58-6.22-7.1-6.22-5.4,0-9.28,3.82-9.28,9.22,0,3.82,2.7,6.22,7.22,6.22,5.34,0,9.16-3.82,9.16-9.22Z"/>
    <path class="cls-1" d="M284.55,299.74c0-10.46,7.94-18.29,18.99-18.29,9.64,0,15.83,5.55,15.83,14.08,0,10.46-7.89,18.29-18.99,18.29-9.58,0-15.83-5.61-15.83-14.08ZM310.14,295.94c0-4.26-2.57-6.95-7.13-6.95-5.37,0-9.23,4.21-9.23,10.34,0,4.26,2.63,6.95,7.19,6.95,5.32,0,9.17-4.21,9.17-10.34Z"/>
    <path class="cls-1" d="M311.56,299.74c0-10.46,7.94-18.29,18.99-18.29,9.64,0,15.83,5.55,15.83,14.08,0,10.46-7.89,18.29-18.99,18.29-9.58,0-15.83-5.61-15.83-14.08ZM337.14,295.94c0-4.26-2.57-6.95-7.13-6.95-5.37,0-9.23,4.21-9.23,10.34,0,4.26,2.63,6.95,7.19,6.95,5.32,0,9.17-4.21,9.17-10.34Z"/>
    <path class="cls-2" d="M312.05,299.59c0,3.07.83,5.75,2.32,7.94,2.82-3.19,4.46-7.4,4.46-12.17,0-3.08-.81-5.76-2.29-7.95-2.83,3.19-4.49,7.41-4.49,12.18Z"/>
  </g>
  <g>
    <path class="cls-1" d="M513.14,300.21l7.38,13.07h-10.34l-6.65-11.86h-8.35l-2.36,11.86h-9.86l8.47-42.34h17.24c10.52,0,16.57,4.84,16.57,13.13s-4.54,13.79-12.1,16.15ZM515.32,284.97c0-4.11-2.9-6.05-7.92-6.05h-7.74l-2.96,14.7h8.35c6.47,0,10.28-3.02,10.28-8.65Z"/>
    <path class="cls-1" d="M561.59,299.54h-24.92c.3,4.42,3.02,6.65,8.41,6.65,3.33,0,6.47-1.09,8.71-3.02l3.93,6.23c-3.75,3.02-8.65,4.35-13.61,4.35-10.16,0-16.63-5.75-16.63-14.58,0-10.89,7.86-18.93,19.17-18.93,9.5,0,15.48,5.63,15.48,14.34,0,1.75-.24,3.45-.55,4.96ZM537.34,294.04h16.15c0-4.3-2.9-6.71-7.26-6.71s-7.62,2.66-8.89,6.71Z"/>
    <path class="cls-1" d="M607.7,294.83c0,10.95-7.92,18.93-18.03,18.93-4.72,0-8.41-1.51-10.52-4.84l-3.21,16.09h-9.44l8.83-44.28h8.95l-.66,3.21c2.6-2.36,5.99-3.69,9.98-3.69,7.56,0,14.09,5.32,14.09,14.58ZM598.15,295.25c0-4.42-2.72-7.2-7.44-7.2-5.5,0-9.5,4.36-9.5,10.71,0,4.42,2.66,7.2,7.38,7.2,5.56,0,9.56-4.36,9.56-10.71Z"/>
    <path class="cls-1" d="M652.14,280.73l-6.47,32.54h-8.95l.6-3.21c-2.6,2.36-5.99,3.69-9.98,3.69-7.56,0-14.03-5.32-14.03-14.58,0-10.95,7.92-18.93,17.97-18.93,4.72,0,8.47,1.51,10.58,4.9l.85-4.42h9.44ZM639.8,295.25c0-4.42-2.72-7.2-7.44-7.2-5.56,0-9.56,4.36-9.56,10.71,0,4.42,2.72,7.2,7.44,7.2,5.56,0,9.56-4.36,9.56-10.71Z"/>
    <path class="cls-1" d="M663.9,280.73h9.38l-6.47,32.54h-9.38l6.47-32.54ZM664.69,271.3c0-3.15,2.48-5.63,6.23-5.63,3.33,0,5.56,2.06,5.56,4.72,0,3.45-2.54,5.81-6.29,5.81-3.33,0-5.5-2.18-5.5-4.9Z"/>
    <path class="cls-1" d="M704.41,280.25l-1.69,8.71c-.85-.06-1.39-.12-2.18-.12-5.56,0-9.13,2.6-10.34,8.71l-3.15,15.73h-9.44l6.47-32.54h8.95l-.79,3.87c2.9-3.15,6.9-4.36,12.16-4.36Z"/>
  </g>
</svg>